IKResults
version=1
nRows=5
nColumns=67
inDegrees=yes

Units are S.I. units (second, meters, Newtons, ...)
Angles are in degrees.

endheader
time	pelvis_tilt	pelvis_list	pelvis_rotation	pelvis_tx	pelvis_ty	pelvis_tz	hip_flexion_r	hip_adduction_r	hip_rotation_r	knee_angle_r	knee_rot_r	knee_adduc_r	ankle_angle_r	ankle_rot_r	ankle_add_r	subtalar_angle_r	mtp_angle_r	mtp_rot_r	mtp_add_r	hip_flexion_l	hip_adduction_l	hip_rotation_l	knee_angle_l	knee_rot_l	knee_adduc_l	ankle_angle_l	ankle_rot_l	ankle_add_l	subtalar_angle_l	mtp_angle_l	mtp_rot_l	mtp_add_l	lumbar_extension	lumbar_bending	lumbar_rotation	neck_flexion	neck_lateral_bending	neck_rotation	arm_flex_r	arm_add_r	arm_rot_r	elbow_flex_r	elbow_rot_r	elbow_add_r	pro_sup_r	wrist_flex_r	wrist_adduc_r	wrist_rot_r	wrist_dev_r	hand_finger_flex_r	hand_finger_adduc_r	hand_finger_rot_r	arm_flex_l	arm_add_l	arm_rot_l	elbow_flex_l	elbow_rot_l	elbow_add_l	pro_sup_l	wrist_flex_l	wrist_adduc_l	wrist_rot_l	wrist_dev_l	hand_finger_flex_l	hand_finger_adduc_l	hand_finger_rot_l
      1.00000000	     16.38179199	      5.74454749	      9.02365206	     -1.91191051	      0.73299304	      0.55482101	     12.05745262	     -4.68241078	     -2.35653182	    -28.96563720	     -5.00000000	      2.09998369	     -3.84343814	     -4.48308567	      5.00000000	    -19.60031923	     17.87458954	     -2.00000000	      0.19520426	    -34.55820250	     -0.31173807	     -0.45182345	    -29.03421935	      5.00000000	      1.05812901	     -9.46118374	      0.85900286	      5.00000000	     14.40731429	     32.63017503	      0.49957370	     -2.00000000	    -30.77029276	      0.94956638	    -10.00313964	      0.00000000	      0.00000000	      0.00000000	      0.00000000	      0.00000000	      0.00000000	      0.00000000	      0.00000000	      0.00000000	     -0.00042092	      0.00000000	      0.00000000	      0.00000000	      0.00000000	      0.00000000	      0.00000000	      0.00000000	      0.00000000	      0.00000000	      0.00000000	      0.00000000	      0.00000000	      0.00000000	      0.00000000	      0.00000000	      0.00000000	      0.00000000	      0.00000000	      0.00000000	      0.00000000	      0.00000000
      1.00500000	     16.54391783	      5.29082052	      9.20988407	     -1.90499249	      0.73379754	      0.55505076	     11.52542019	     -4.08513382	     -2.54690245	    -29.34870027	     -5.00000000	      2.19062598	     -3.09928194	     -4.62031658	      5.00000000	    -19.67751151	     17.71187614	     -2.00000000	      0.14726099	    -33.44304261	     -0.92868539	     -0.72433713	    -31.49857676	      5.00000000	      1.24919579	    -11.27763965	      0.96768541	      5.00000000	     14.19461350	     32.92730518	      0.59529460	     -2.00000000	    -30.79633856	      1.62898182	    -10.09553564	      0.00000000	      0.00000000	      0.00000000	      0.00000000	      0.00000000	      0.00000000	      0.00000000	      0.00000000	      0.00000000	     -0.00042092	      0.00000000	      0.00000000	      0.00000000	      0.00000000	      0.00000000	      0.00000000	      0.00000000	      0.00000000	      0.00000000	      0.00000000	      0.00000000	      0.00000000	      0.00000000	      0.00000000	      0.00000000	      0.00000000	      0.00000000	      0.00000000	      0.00000000	      0.00000000	      0.00000000
      1.01000000	     16.16339446	      4.80840564	      9.76882172	     -1.89816797	      0.73418737	      0.55530585	     11.48673972	     -3.42455155	     -3.98715604	    -29.56757251	     -5.00000000	      1.50917222	     -2.40645447	     -4.37618491	      5.00000000	    -19.14840638	     16.75183553	     -2.00000000	     -0.16340933	    -31.46868427	     -1.80511444	     -0.06875121	    -34.45538086	      5.00000000	      0.88117481	    -12.38318212	      0.35906173	      5.00000000	     12.19427662	     34.43200421	      1.07912153	     -2.00000000	    -30.17367074	      2.23795152	    -10.48104743	      0.00000000	      0.00000000	      0.00000000	      0.00000000	      0.00000000	      0.00000000	      0.00000000	      0.00000000	      0.00000000	     -0.00042092	      0.00000000	      0.00000000	      0.00000000	      0.00000000	      0.00000000	      0.00000000	      0.00000000	      0.00000000	      0.00000000	      0.00000000	      0.00000000	      0.00000000	      0.00000000	      0.00000000	      0.00000000	      0.00000000	      0.00000000	      0.00000000	      0.00000000	      0.00000000	      0.00000000
      1.01500000	     16.21165214	      4.36424722	     10.14876851	     -1.89141994	      0.73503407	      0.55553925	     10.86657482	     -2.79065031	     -4.41891620	    -29.54852523	     -5.00000000	      1.41113052	     -1.70904120	     -4.42756312	      5.00000000	    -18.68615141	     15.15863025	     -2.00000000	     -0.65348124	    -30.09166094	     -2.50490623	      0.39574600	    -37.05583125	      5.00000000	      0.70730340	    -13.71504624	     -0.95108957	      5.00000000	      9.49443609	     36.46264424	      2.00000000	     -2.00000000	    -30.09132487	      2.87603629	    -10.74236794	      0.00000000	      0.00000000	      0.00000000	      0.00000000	      0.00000000	      0.00000000	      0.00000000	      0.00000000	      0.00000000	     -0.00042092	      0.00000000	      0.00000000	      0.00000000	      0.00000000	      0.00000000	      0.00000000	      0.00000000	      0.00000000	      0.00000000	      0.00000000	      0.00000000	      0.00000000	      0.00000000	      0.00000000	      0.00000000	      0.00000000	      0.00000000	      0.00000000	      0.00000000	      0.00000000	      0.00000000
      1.02000000	     16.30583165	      3.96102254	     10.42714307	     -1.88480807	      0.73591972	      0.55569728	     10.12450952	     -2.16424693	     -4.48663474	    -29.39047549	     -5.00000000	      1.46302229	     -0.94797605	     -4.69353702	      4.99597796	    -18.89538351	     14.99062102	     -2.00000000	     -0.69489490	    -28.76869884	     -3.01603608	      0.28392246	    -39.53438764	      5.00000000	      1.03505856	    -14.49215511	     -1.06164501	      5.00000000	      9.32979015	     36.62461463	      2.00000000	     -2.00000000	    -30.02816834	      3.45042654	    -10.69691595	      0.00000000	      0.00000000	      0.00000000	      0.00000000	      0.00000000	      0.00000000	      0.00000000	      0.00000000	      0.00000000	     -0.00042092	      0.00000000	      0.00000000	      0.00000000	      0.00000000	      0.00000000	      0.00000000	      0.00000000	      0.00000000	      0.00000000	      0.00000000	      0.00000000	      0.00000000	      0.00000000	      0.00000000	      0.00000000	      0.00000000	      0.00000000	      0.00000000	      0.00000000	      0.00000000	      0.00000000
